<svg width="14" height="16" viewBox="0 0 14 16" fill="none" xmlns="http://www.w3.org/2000/svg">
<path fill-rule="evenodd" clip-rule="evenodd" d="M0 11.7895C0 12.5305 0.328421 13.1958 0.842105 13.6589V15.1579C0.842105 15.6211 1.22105 16 1.68421 16H2.52632C2.98947 16 3.36842 15.6211 3.36842 15.1579V14.3158H10.1053V15.1579C10.1053 15.6211 10.4842 16 10.9474 16H11.7895C12.2526 16 12.6316 15.6211 12.6316 15.1579V13.6589C13.1453 13.1958 13.4737 12.5305 13.4737 11.7895V3.36842C13.4737 0.421053 10.4589 0 6.73684 0C3.01474 0 0 0.421053 0 3.36842V11.7895ZM2.94737 12.6316C2.24842 12.6316 1.68421 12.0674 1.68421 11.3684C1.68421 10.6695 2.24842 10.1053 2.94737 10.1053C3.64632 10.1053 4.21053 10.6695 4.21053 11.3684C4.21053 12.0674 3.64632 12.6316 2.94737 12.6316ZM10.5263 12.6316C9.82737 12.6316 9.26316 12.0674 9.26316 11.3684C9.26316 10.6695 9.82737 10.1053 10.5263 10.1053C11.2253 10.1053 11.7895 10.6695 11.7895 11.3684C11.7895 12.0674 11.2253 12.6316 10.5263 12.6316ZM11.7895 7.57895H1.68421V3.36842H11.7895V7.57895Z" fill="white"/>
</svg>
