<svg width="16" height="16" viewBox="0 0 16 16" fill="none" xmlns="http://www.w3.org/2000/svg">
<path fill-rule="evenodd" clip-rule="evenodd" d="M4.8 12.8C3.92 12.8 3.208 13.52 3.208 14.4C3.208 15.28 3.92 16 4.8 16C5.68 16 6.4 15.28 6.4 14.4C6.4 13.52 5.68 12.8 4.8 12.8ZM0 0V1.6H1.6L4.48 7.672L3.4 9.632C3.272 9.856 3.2 10.12 3.2 10.4C3.2 11.28 3.92 12 4.8 12H14.4V10.4H5.136C5.024 10.4 4.936 10.312 4.936 10.2L4.96 10.104L5.68 8.8H11.64C12.24 8.8 12.768 8.472 13.04 7.976L15.904 2.784C15.968 2.672 16 2.536 16 2.4C16 1.96 15.64 1.6 15.2 1.6H3.368L2.616 0H0ZM12.8 12.8C11.92 12.8 11.208 13.52 11.208 14.4C11.208 15.28 11.92 16 12.8 16C13.68 16 14.4 15.28 14.4 14.4C14.4 13.52 13.68 12.8 12.8 12.8Z" fill="white"/>
</svg>
